<svg id="Layer_1" data-name="Layer 1" xmlns="http://www.w3.org/2000/svg" viewBox="0 0 630.84 169.05"><defs><style>.cls-1{isolation:isolate;}.cls-2{fill:#ffce1e}.cls-3{fill:none;}.cls-4{fill:#703917;}.cls-5{fill:#994e23;}.cls-6{fill:#ee3b8e;}.cls-7{fill:#ed247f;}.cls-8{fill:#50c4d0;}.cls-9{fill:#cae7f9;}.cls-10{fill:#e2e4f3;}.cls-11{fill:#b9e0f6;}.cls-12{fill:#c7c8e5;}</style></defs><g id="Layer_1-2" data-name="Layer 1"><g class="cls-1"><path class="cls-2" d="M-29.72,356.77l40.33.23-.1,16.56-24-.13-.08,14.26L7,387.8l-.1,16.56-20.54-.11-.16,27.37-16.36-.1Z" transform="translate(30.15 -277.18)"/><path class="cls-2" d="M8.88,394C9,369.41,20.7,355.68,37.82,355.78s28.65,14.08,28.51,38.57-11.83,39-28.95,38.94S8.74,418.64,8.88,394Zm40.71.24c.08-13.57-4.44-21.42-11.86-21.46s-12,7.75-12.11,21.32,4.44,22.11,11.86,22.15S49.51,407.83,49.59,394.26Z" transform="translate(30.15 -277.18)"/><path class="cls-2" d="M69,357.33l16.36.1-.33,58.19,23.4.14-.1,16.56-39.76-.23Z" transform="translate(30.15 -277.18)"/><path class="cls-2" d="M110.87,357.58l16.37.09-.34,58.19,23.4.14-.09,16.56-39.76-.23Z" transform="translate(30.15 -277.18)"/><path class="cls-2" d="M146.05,394.81c.14-24.61,11.83-38.35,28.95-38.25s28.64,14.08,28.5,38.58-11.82,39-28.95,38.94S145.91,419.42,146.05,394.81Zm40.71.23c.08-13.57-4.44-21.42-11.86-21.46s-12,7.75-12.11,21.33,4.44,22.1,11.86,22.14S186.68,408.61,186.76,395Z" transform="translate(30.15 -277.18)"/><path class="cls-2" d="M200.29,358.09l16.75.09,3.23,32.68c.62,7.83,1.34,15.65,2,23.48h.38c1.19-7.81,2.38-15.74,3.56-23.44l6.09-32.63,13.69.08L251.66,391c1.1,7.49,2.2,15.54,3.29,23.48h.38c.71-7.94,1.52-15.87,2.23-23.45l3.61-32.65,15.6.09-10.7,74.7-20.74-.12-4.58-29.7c-.92-5.75-1.65-12-2.19-17.49h-.38c-.69,5.51-1.39,11.72-2.38,17.46L231.07,433l-20.36-.12Z" transform="translate(30.15 -277.18)"/></g><g class="cls-1"><path class="cls-3" d="M-29.72,356.77l40.33.23-.1,16.56-24-.13-.08,14.26L7,387.8l-.1,16.56-20.54-.11-.16,27.37-16.36-.1Z" transform="translate(30.15 -277.18)"/><path class="cls-3" d="M8.88,394C9,369.41,20.7,355.68,37.82,355.78s28.65,14.08,28.51,38.57-11.83,39-28.95,38.94S8.74,418.64,8.88,394Zm40.71.24c.08-13.57-4.44-21.42-11.86-21.46s-12,7.75-12.11,21.32,4.44,22.11,11.86,22.15S49.51,407.83,49.59,394.26Z" transform="translate(30.15 -277.18)"/><path class="cls-3" d="M69,357.33l16.36.1-.33,58.19,23.4.14-.1,16.56-39.76-.23Z" transform="translate(30.15 -277.18)"/><path class="cls-3" d="M110.87,357.58l16.37.09-.34,58.19,23.4.14-.09,16.56-39.76-.23Z" transform="translate(30.15 -277.18)"/><path class="cls-3" d="M146.05,394.81c.14-24.61,11.83-38.35,28.95-38.25s28.64,14.08,28.5,38.58-11.82,39-28.95,38.94S145.91,419.42,146.05,394.81Zm40.71.23c.08-13.57-4.44-21.42-11.86-21.46s-12,7.75-12.11,21.33,4.44,22.1,11.86,22.14S186.68,408.61,186.76,395Z" transform="translate(30.15 -277.18)"/><path class="cls-3" d="M200.29,358.09l16.75.09,3.23,32.68c.62,7.83,1.34,15.65,2,23.48h.38c1.19-7.81,2.38-15.74,3.56-23.44l6.09-32.63,13.69.08L251.66,391c1.1,7.49,2.2,15.54,3.29,23.48h.38c.71-7.94,1.52-15.87,2.23-23.45l3.61-32.65,15.6.09-10.7,74.7-20.74-.12-4.58-29.7c-.92-5.75-1.65-12-2.19-17.49h-.38c-.69,5.51-1.39,11.72-2.38,17.46L231.07,433l-20.36-.12Z" transform="translate(30.15 -277.18)"/></g></g><g id="Layer_2" data-name="Layer 2"><path class="cls-4" d="M362,409.6l-9.8,5.7a6.42,6.42,0,0,1-8.2-1.5,4.84,4.84,0,0,1,1.5-7.3l9.8-5.7a4.83,4.83,0,0,0,1.5-7.3l-6.2-8.1a4.84,4.84,0,0,1,1.5-7.3,6.42,6.42,0,0,1,8.2,1.5l6.2,8.1C372.2,395.1,370.1,404.8,362,409.6Z" transform="translate(30.15 -277.18)"/><path class="cls-5" d="M367.5,444.5h0a13,13,0,0,1-16.5-3l-33.5-43.8L337,386.2,370.5,430C374.3,434.8,372.9,441.3,367.5,444.5Z" transform="translate(30.15 -277.18)"/><path class="cls-6" d="M326.4,353.8,347.2,381l-3.5,14-34.1,20c-8.1,4.8-19.3,2.6-24.8-4.7l-13.4-17.5c-5.5-7.2-3.4-16.8,4.7-21.6l34.2-20.1Z" transform="translate(30.15 -277.18)"/><path class="cls-7" d="M336.7,367.3,347.2,381l-3.5,14-34.1,20c-8.1,4.8-19.3,2.6-24.8-4.7l-6.6-8.6Z" transform="translate(30.15 -277.18)"/><path class="cls-8" d="M412.8,300.7c-3.2-.6-5.3-3.4-4.7-6.2l2.2-10.3c.6-2.8,3.7-4.6,6.9-4.1s5.3,3.4,4.7,6.2l-2.2,10.3C419.1,299.5,416,301.3,412.8,300.7Z" transform="translate(30.15 -277.18)"/><path class="cls-8" d="M452.9,340l-11.6-2.1c-3.2-.6-5.3-3.4-4.7-6.2s3.7-4.6,6.9-4.1l11.6,2.1c3.2.6,5.3,3.4,4.7,6.2S456.1,340.6,452.9,340Z" transform="translate(30.15 -277.18)"/><path class="cls-8" d="M453.9,298.4c1.9,2.5,1.2,5.6-1.5,7.3l-14.6,8.6a6.42,6.42,0,0,1-8.2-1.5c-1.9-2.5-1.2-5.6,1.5-7.3l14.6-8.6A6.33,6.33,0,0,1,453.9,298.4Z" transform="translate(30.15 -277.18)"/><path class="cls-9" d="M381.6,296.4l46.9,61.3c1.3,1.8.2,17.4,2.3,18.1H414c-24.9-.2-50.2,7.3-68.6,18.1l-1.7,1-33.5-43.8,1.7-1c19.3-11.4,35.4-28.2,44.9-49l6.5-14.2Z" transform="translate(30.15 -277.18)"/><path class="cls-10" d="M311.5,347.8c1.9,2.5,1.2,5.6-1.5,7.3l-9.8,5.7a6.42,6.42,0,0,1-8.2-1.5c-1.9-2.5-1.2-5.6,1.5-7.3l9.8-5.7A6.42,6.42,0,0,1,311.5,347.8Z" transform="translate(30.15 -277.18)"/><path class="cls-11" d="M405.1,327.1l23.5,30.7c1.3,1.8.2,17.4,2.3,18.1H414.1c-24.9-.2-50.2,7.3-68.6,18.1l-1.7,1L327,373Z" transform="translate(30.15 -277.18)"/><path class="cls-12" d="M311.5,347.8c1.9,2.5,1.2,5.6-1.5,7.3l-9.8,5.7a6.42,6.42,0,0,1-8.2-1.5Z" transform="translate(30.15 -277.18)"/><path class="cls-6" d="M384.7,281.9l60.4,78.9c3.7,4.8,2.3,11.3-3.1,14.5a11.76,11.76,0,0,1-2,.7,12.43,12.43,0,0,1-9.1-.1,11,11,0,0,1-5.3-3.6l-60.4-78.9a9.79,9.79,0,0,1,.8-12.6,10,10,0,0,1,2.2-1.9A13,13,0,0,1,384.7,281.9Z" transform="translate(30.15 -277.18)"/><path class="cls-7" d="M414.8,321.4,445,360.8c3.7,4.8,2.3,11.3-3.1,14.5a11.76,11.76,0,0,1-2,.7,12.43,12.43,0,0,1-9.1-.1,11,11,0,0,1-5.3-3.6l-30.2-39.4Z" transform="translate(30.15 -277.18)"/></g><g id="Layer_3" data-name="Layer 3"><g class="cls-1"><path class="cls-2" d="M391.73,356.73h24.2c13.78,0,25.58,5.52,25.58,24.15,0,18.06-11.8,25.53-25.58,25.53h-7.28v25.08H391.73Zm23,34c6.69,0,10.23-3.45,10.23-9.89s-3.54-8.51-10.23-8.51h-6.1v18.4Zm-1.87,10.47,11.41-13.11,20.76,43.36H426.16Z" transform="translate(30.15 -277.18)"/><path class="cls-2" d="M444.46,395.37V356.73h16.92v40.94c0,13.34,2.95,18.17,9.64,18.17s9.84-4.83,9.84-18.17V356.73H497.2v38.64c0,25.54-8.27,37.5-26.18,37.5S444.46,420.91,444.46,395.37Z" transform="translate(30.15 -277.18)"/><path class="cls-2" d="M497.19,422.17l9.64-13.57c4.53,4.25,10.24,7.24,15,7.24,5.11,0,7.28-1.95,7.28-5.29,0-3.56-3.25-4.71-8.66-7.24l-8-3.91c-6.89-3.22-12.89-10-12.89-20.82,0-12.76,9.84-23.23,23.81-23.23a28.55,28.55,0,0,1,21.26,10l-8.47,12.42c-4.33-3.57-8.06-5.41-12.79-5.41-4.13,0-6.69,1.73-6.69,5.06,0,3.57,3.64,4.83,9.45,7.48l7.77,3.56c8,3.68,12.5,10.12,12.5,20.47,0,12.65-9.06,23.93-25,23.93A34.1,34.1,0,0,1,497.19,422.17Z" transform="translate(30.15 -277.18)"/><path class="cls-2" d="M547.76,356.73h16.92v27.83h19.09V356.73h16.92v74.76H583.77V401.81H564.68v29.68H547.76Z" transform="translate(30.15 -277.18)"/></g><g class="cls-1"><path class="cls-3" d="M391.73,356.73h24.2c13.78,0,25.58,5.52,25.58,24.15,0,18.06-11.8,25.53-25.58,25.53h-7.28v25.08H391.73Zm23,34c6.69,0,10.23-3.45,10.23-9.89s-3.54-8.51-10.23-8.51h-6.1v18.4Zm-1.87,10.47,11.41-13.11,20.76,43.36H426.16Z" transform="translate(30.15 -277.18)"/><path class="cls-3" d="M444.46,395.37V356.73h16.92v40.94c0,13.34,2.95,18.17,9.64,18.17s9.84-4.83,9.84-18.17V356.73H497.2v38.64c0,25.54-8.27,37.5-26.18,37.5S444.46,420.91,444.46,395.37Z" transform="translate(30.15 -277.18)"/><path class="cls-3" d="M497.19,422.17l9.64-13.57c4.53,4.25,10.24,7.24,15,7.24,5.11,0,7.28-1.95,7.28-5.29,0-3.56-3.25-4.71-8.66-7.24l-8-3.91c-6.89-3.22-12.89-10-12.89-20.82,0-12.76,9.84-23.23,23.81-23.23a28.55,28.55,0,0,1,21.26,10l-8.47,12.42c-4.33-3.57-8.06-5.41-12.79-5.41-4.13,0-6.69,1.73-6.69,5.06,0,3.57,3.64,4.83,9.45,7.48l7.77,3.56c8,3.68,12.5,10.12,12.5,20.47,0,12.65-9.06,23.93-25,23.93A34.1,34.1,0,0,1,497.19,422.17Z" transform="translate(30.15 -277.18)"/><path class="cls-3" d="M547.76,356.73h16.92v27.83h19.09V356.73h16.92v74.76H583.77V401.81H564.68v29.68H547.76Z" transform="translate(30.15 -277.18)"/></g></g></svg>